<svg width="50" height="50" viewBox="0 0 50 50" fill="none" xmlns="http://www.w3.org/2000/svg">
<circle cx="25" cy="25" r="25" fill="#6ECCAF"/>
<path d="M26.5757 33.895L25.4917 34.979C25.0327 35.438 24.2905 35.438 23.8364 34.979L14.3442 25.4917C13.8853 25.0327 13.8853 24.2905 14.3442 23.8364L23.8364 14.3442C24.2954 13.8853 25.0376 13.8853 25.4917 14.3442L26.5757 15.4282C27.0395 15.8921 27.0298 16.6489 26.5562 17.103L20.6724 22.7085H34.7056C35.355 22.7085 35.8774 23.231 35.8774 23.8804V25.4429C35.8774 26.0923 35.355 26.6147 34.7056 26.6147H20.6724L26.5562 32.2202C27.0347 32.6743 27.0444 33.4312 26.5757 33.895Z" fill="white"/>
</svg>
